<svg width="100" height="100" viewBox="0 0 100 100" fill="none" xmlns="http://www.w3.org/2000/svg">
  <defs>
    <linearGradient id="logoGradient" x1="0%" y1="0%" x2="100%" y2="100%">
      <stop offset="0%" stopColor="#2196f3" />
      <stop offset="100%" stopColor="#512da8" />
    </linearGradient>
  </defs>

  <circle cx="50" cy="50" r="45" fill="url(#logoGradient)" />
  <path
    d="M35 25H65C67.7614 25 70 27.2386 70 30V70C70 72.7614 67.7614 75 65 75H35C32.2386 75 30 72.7614 30 70V30C30 27.2386 32.2386 25 35 25Z"
    fill="white"
  />
  <g>
    <rect x="38" y="40" width="24" height="2" rx="1" fill="url(#logoGradient)" />
    <rect x="38" y="48" width="18" height="2" rx="1" fill="url(#logoGradient)" />
    <rect x="38" y="56" width="20" height="2" rx="1" fill="url(#logoGradient)" />
  </g>
  <path
    d="M55 32C55 32 65 45 65 50C65 55 55 68 55 68"
    stroke="url(#logoGradient)"
    strokeWidth="2"
    strokeLinecap="round"
    fill="none"
  />
</svg> 